<?xml version="1.0" encoding="UTF-8"?>
<svg xmlns="http://www.w3.org/2000/svg" xmlns:xlink="http://www.w3.org/1999/xlink" width="16px" height="16px" viewBox="0 0 16 16" version="1.1">
<g id="surface1">
<path style=" stroke:none;fill-rule:nonzero;fill:rgb(0%,0%,0%);fill-opacity:1;" d="M 2.878906 4.113281 C 2.878906 4.542969 2.59375 4.59375 2.304688 4.191406 C 2.097656 3.953125 2.078125 3.984375 2.113281 4.480469 C 2.128906 4.785156 2.078125 5.214844 2.015625 5.441406 C 1.9375 5.695312 1.953125 5.761719 2.046875 5.632812 C 2.128906 5.503906 2.238281 5.425781 2.304688 5.425781 C 2.351562 5.441406 2.414062 5.441406 2.449219 5.425781 C 2.464844 5.40625 2.816406 5.375 3.230469 5.34375 C 3.96875 5.28125 3.984375 5.296875 4.464844 6 C 4.734375 6.398438 4.960938 6.800781 4.960938 6.894531 C 4.960938 6.976562 5.023438 7.039062 5.105469 7.039062 C 5.390625 7.039062 5.488281 8 5.230469 8.289062 C 5.007812 8.542969 5.007812 8.65625 5.296875 9.519531 C 5.488281 10.097656 5.808594 10.65625 6.097656 10.945312 C 6.542969 11.359375 6.59375 11.488281 6.511719 12.113281 C 6.480469 12.496094 6.320312 12.945312 6.175781 13.105469 C 5.824219 13.488281 5.855469 13.601562 6.289062 13.601562 C 6.734375 13.601562 7.023438 13.152344 7.152344 12.238281 C 7.199219 11.839844 7.296875 11.519531 7.34375 11.519531 C 7.839844 11.519531 8.015625 12.769531 7.601562 13.121094 C 7.28125 13.375 7.535156 13.664062 7.9375 13.535156 C 8.464844 13.359375 8.640625 12.734375 8.382812 11.886719 C 8.03125 10.703125 8.015625 10.71875 9.34375 10.71875 C 10 10.71875 10.71875 10.65625 10.945312 10.558594 C 11.3125 10.433594 11.390625 10.464844 11.601562 10.878906 C 11.9375 11.535156 11.902344 12.351562 11.503906 12.863281 C 11.136719 13.328125 11.265625 13.695312 11.710938 13.519531 C 11.96875 13.40625 12.015625 13.34375 12.367188 12.238281 C 12.609375 11.488281 12.816406 11.425781 13.023438 12.03125 C 13.136719 12.367188 13.121094 12.625 12.910156 13.039062 C 12.640625 13.601562 12.734375 13.839844 13.167969 13.664062 C 13.441406 13.566406 13.601562 13.105469 13.601562 12.320312 L 13.601562 11.761719 L 13.921875 12.160156 L 14.238281 12.558594 L 14.238281 12.175781 C 14.238281 11.953125 14.160156 11.519531 14.0625 11.214844 C 13.953125 10.894531 13.839844 10.542969 13.808594 10.414062 C 13.761719 10.238281 13.695312 10.257812 13.503906 10.496094 C 13.28125 10.785156 13.265625 10.734375 13.34375 9.9375 C 13.390625 9.457031 13.519531 9.007812 13.632812 8.945312 C 13.855469 8.800781 13.902344 7.152344 13.695312 6.625 C 13.503906 6.128906 13.265625 6.703125 13.375 7.390625 C 13.457031 7.953125 13.121094 8.960938 12.832031 8.960938 C 12.542969 8.960938 12.191406 8.527344 12.015625 7.96875 C 11.839844 7.425781 11.359375 6.992188 11.359375 7.390625 C 11.359375 7.710938 10.558594 8.640625 10.0625 8.894531 C 9.792969 9.023438 9.390625 9.121094 9.152344 9.089844 C 8.785156 9.039062 8.6875 8.929688 8.542969 8.320312 C 8.320312 7.375 8 7.328125 7.183594 8.128906 C 6.574219 8.734375 6.078125 8.863281 5.839844 8.464844 C 5.742188 8.335938 6.0625 7.679688 6.289062 7.503906 C 6.367188 7.457031 6.335938 7.089844 6.222656 6.703125 C 6.113281 6.320312 6.03125 5.953125 6.046875 5.886719 C 6.113281 5.632812 4.625 4.625 4.0625 4.527344 C 3.726562 4.464844 3.328125 4.273438 3.167969 4.097656 L 2.894531 3.761719 Z M 2.878906 4.113281 "/>
<path style=" stroke:none;fill-rule:nonzero;fill:rgb(0%,0%,0%);fill-opacity:1;" d="M 2.785156 5.9375 C 2.625 6.207031 2.992188 6.511719 3.214844 6.289062 C 3.40625 6.097656 3.28125 5.761719 3.039062 5.761719 C 2.960938 5.761719 2.847656 5.839844 2.785156 5.9375 Z M 2.785156 5.9375 "/>
<path style=" stroke:none;fill-rule:nonzero;fill:rgb(0%,0%,0%);fill-opacity:1;" d="M 4.160156 7.214844 C 4.015625 7.390625 3.632812 7.585938 3.199219 7.648438 C 2.625 7.742188 2.464844 7.839844 2.433594 8.128906 C 2.367188 8.527344 2.59375 8.59375 2.863281 8.257812 C 3.105469 7.96875 3.777344 7.839844 3.984375 8.046875 C 4.222656 8.289062 4.414062 8.046875 4.527344 7.390625 C 4.640625 6.816406 4.511719 6.734375 4.160156 7.214844 Z M 4.160156 7.214844 "/>
<path style=" stroke:none;fill-rule:nonzero;fill:rgb(0%,0%,0%);fill-opacity:1;" d="M 1.230469 8.222656 C 1.136719 8.464844 1.40625 8.800781 1.679688 8.800781 C 1.761719 8.800781 1.710938 8.71875 1.566406 8.625 C 1.40625 8.542969 1.328125 8.367188 1.375 8.238281 C 1.441406 8.113281 1.441406 8 1.390625 8 C 1.34375 8 1.28125 8.097656 1.230469 8.222656 Z M 1.230469 8.222656 "/>
</g>
</svg>
