<?xml version="1.0" standalone="no"?>
<!DOCTYPE svg PUBLIC "-//W3C//DTD SVG 20010904//EN"
 "http://www.w3.org/TR/2001/REC-SVG-20010904/DTD/svg10.dtd">
<svg version="1.0" xmlns="http://www.w3.org/2000/svg"
 width="100.000000pt" height="100.000000pt" viewBox="0 0 100.000000 100.000000"
 preserveAspectRatio="xMidYMid meet">

<g transform="translate(0.000000,100.000000) scale(0.100000,-0.100000)"
fill="#000000" stroke="none">
<path d="M180 743 c0 -27 -18 -30 -36 -5 -13 15 -14 13 -12 -18 1 -19 -2 -46
-6 -60 -5 -16 -4 -20 2 -12 5 8 12 13 16 13 3 -1 7 -1 9 0 1 1 23 3 49 5 46 4
47 3 77 -41 17 -25 31 -50 31 -56 0 -5 4 -9 9 -9 18 0 24 -60 8 -78 -14 -16
-14 -23 4 -77 12 -36 32 -71 50 -89 28 -26 31 -34 26 -73 -2 -24 -12 -52 -21
-62 -22 -24 -20 -31 7 -31 28 0 46 28 54 85 3 25 9 45 12 45 31 0 42 -78 16
-100 -20 -16 -4 -34 21 -26 33 11 44 50 28 103 -22 74 -23 73 60 73 41 0 86 4
100 10 23 8 28 6 41 -20 21 -41 19 -92 -6 -124 -23 -29 -15 -52 13 -41 16 7
19 11 41 80 15 47 28 51 41 13 7 -21 6 -37 -7 -63 -17 -35 -11 -50 16 -39 17
6 27 35 27 84 l0 35 20 -25 20 -25 0 24 c0 14 -5 41 -11 60 -7 20 -14 42 -16
50 -3 11 -7 10 -19 -5 -14 -18 -15 -15 -10 35 3 30 11 58 18 62 14 9 17 112 4
145 -12 31 -27 -5 -20 -48 5 -35 -16 -98 -34 -98 -18 0 -40 27 -51 62 -11 34
-41 61 -41 36 0 -20 -50 -78 -81 -94 -17 -8 -42 -14 -57 -12 -23 3 -29 10 -38
48 -14 59 -34 62 -85 12 -38 -38 -69 -46 -84 -21 -6 8 14 49 28 60 5 3 3 26
-4 50 -7 24 -12 47 -11 51 4 16 -89 79 -124 85 -21 4 -46 16 -56 27 l-17 21
-1 -22z"/>
<path d="M174 629 c-10 -17 13 -36 27 -22 12 12 4 33 -11 33 -5 0 -12 -5 -16
-11z"/>
<path d="M260 549 c-9 -11 -33 -23 -60 -27 -36 -6 -46 -12 -48 -30 -4 -25 10
-29 27 -8 15 18 57 26 70 13 15 -15 27 0 34 41 7 36 -1 41 -23 11z"/>
<path d="M77 486 c-6 -15 11 -36 28 -36 5 0 2 5 -7 11 -10 5 -15 16 -12 24 4
8 4 15 1 15 -3 0 -7 -6 -10 -14z"/>
</g>
</svg>
