<?xml version="1.0" encoding="UTF-8"?>
<svg xmlns="http://www.w3.org/2000/svg" xmlns:xlink="http://www.w3.org/1999/xlink" width="32px" height="32px" viewBox="0 0 32 32" version="1.1">
<g id="surface1">
<path style=" stroke:none;fill-rule:nonzero;fill:rgb(0%,0%,0%);fill-opacity:1;" d="M 5.761719 8.222656 C 5.761719 9.089844 5.183594 9.183594 4.609375 8.382812 C 4.191406 7.902344 4.160156 7.96875 4.222656 8.960938 C 4.257812 9.566406 4.160156 10.433594 4.03125 10.878906 C 3.871094 11.390625 3.902344 11.519531 4.097656 11.265625 C 4.257812 11.007812 4.480469 10.847656 4.609375 10.847656 C 4.703125 10.878906 4.832031 10.878906 4.894531 10.847656 C 4.929688 10.816406 5.632812 10.753906 6.464844 10.6875 C 7.9375 10.558594 7.96875 10.59375 8.929688 12 C 9.472656 12.800781 9.921875 13.601562 9.921875 13.792969 C 9.921875 13.953125 10.046875 14.078125 10.207031 14.078125 C 10.785156 14.078125 10.976562 16 10.464844 16.574219 C 10.015625 17.089844 10.015625 17.3125 10.59375 19.039062 C 10.976562 20.191406 11.617188 21.3125 12.191406 21.886719 C 13.089844 22.71875 13.183594 22.976562 13.023438 24.222656 C 12.960938 24.992188 12.640625 25.886719 12.351562 26.207031 C 11.648438 26.976562 11.710938 27.199219 12.574219 27.199219 C 13.472656 27.199219 14.046875 26.304688 14.304688 24.480469 C 14.398438 23.679688 14.59375 23.039062 14.6875 23.039062 C 15.679688 23.039062 16.03125 25.535156 15.199219 26.238281 C 14.558594 26.753906 15.070312 27.328125 15.871094 27.070312 C 16.929688 26.71875 17.28125 25.472656 16.769531 23.777344 C 16.0625 21.40625 16.03125 21.441406 18.6875 21.441406 C 20 21.441406 21.441406 21.3125 21.886719 21.121094 C 22.625 20.863281 22.785156 20.929688 23.199219 21.761719 C 23.871094 23.070312 23.808594 24.703125 23.007812 25.726562 C 22.273438 26.65625 22.527344 27.390625 23.425781 27.039062 C 23.9375 26.816406 24.03125 26.6875 24.734375 24.480469 C 25.214844 22.976562 25.632812 22.847656 26.046875 24.0625 C 26.273438 24.734375 26.238281 25.246094 25.824219 26.078125 C 25.28125 27.199219 25.472656 27.679688 26.335938 27.328125 C 26.878906 27.136719 27.199219 26.207031 27.199219 24.640625 L 27.199219 23.519531 L 28.480469 25.121094 L 28.480469 24.351562 C 28.480469 23.902344 28.320312 23.039062 28.128906 22.433594 C 27.902344 21.792969 27.679688 21.089844 27.617188 20.832031 C 27.519531 20.480469 27.390625 20.511719 27.007812 20.992188 C 26.558594 21.566406 26.527344 21.472656 26.6875 19.871094 C 26.785156 18.910156 27.039062 18.015625 27.265625 17.886719 C 27.710938 17.601562 27.808594 14.304688 27.390625 13.246094 C 27.007812 12.257812 26.527344 13.40625 26.753906 14.785156 C 26.910156 15.902344 26.238281 17.921875 25.664062 17.921875 C 25.089844 17.921875 24.382812 17.054688 24.03125 15.9375 C 23.679688 14.847656 22.71875 13.984375 22.71875 14.785156 C 22.71875 15.425781 21.121094 17.28125 20.128906 17.792969 C 19.585938 18.046875 18.785156 18.238281 18.304688 18.175781 C 17.566406 18.078125 17.375 17.855469 17.089844 16.640625 C 16.640625 14.753906 16 14.65625 14.367188 16.257812 C 13.152344 17.472656 12.160156 17.726562 11.679688 16.929688 C 11.488281 16.671875 12.128906 15.359375 12.574219 15.007812 C 12.734375 14.910156 12.671875 14.175781 12.449219 13.40625 C 12.222656 12.640625 12.0625 11.902344 12.097656 11.777344 C 12.222656 11.265625 9.246094 9.246094 8.128906 9.054688 C 7.457031 8.929688 6.65625 8.542969 6.335938 8.191406 L 5.792969 7.519531 Z M 5.761719 8.222656 "/>
<path style=" stroke:none;fill-rule:nonzero;fill:rgb(0%,0%,0%);fill-opacity:1;" d="M 5.566406 11.871094 C 5.246094 12.414062 5.984375 13.023438 6.433594 12.574219 C 6.816406 12.191406 6.558594 11.519531 6.078125 11.519531 C 5.921875 11.519531 5.695312 11.679688 5.566406 11.871094 Z M 5.566406 11.871094 "/>
<path style=" stroke:none;fill-rule:nonzero;fill:rgb(0%,0%,0%);fill-opacity:1;" d="M 8.320312 14.433594 C 8.03125 14.785156 7.265625 15.167969 6.398438 15.296875 C 5.246094 15.488281 4.929688 15.679688 4.863281 16.257812 C 4.734375 17.054688 5.183594 17.183594 5.726562 16.511719 C 6.207031 15.9375 7.550781 15.679688 7.96875 16.097656 C 8.449219 16.574219 8.832031 16.097656 9.054688 14.785156 C 9.28125 13.632812 9.023438 13.472656 8.320312 14.433594 Z M 8.320312 14.433594 "/>
<path style=" stroke:none;fill-rule:nonzero;fill:rgb(0%,0%,0%);fill-opacity:1;" d="M 2.464844 16.449219 C 2.273438 16.929688 2.816406 17.601562 3.359375 17.601562 C 3.519531 17.601562 3.425781 17.441406 3.136719 17.246094 C 2.816406 17.089844 2.65625 16.734375 2.753906 16.480469 C 2.878906 16.222656 2.878906 16 2.785156 16 C 2.6875 16 2.558594 16.191406 2.464844 16.449219 Z M 2.464844 16.449219 "/>
</g>
</svg>
